HIERARCHY
ROOT Hips
{
	OFFSET -0.001795 -0.223333 0.028219
	CHANNELS 6 Xposition Yposition Zposition Zrotation Yrotation Xrotation 
	JOINT LeftUpLeg
	{
		OFFSET 0.069520 -0.091406 -0.006815
		CHANNELS 3 Zrotation Yrotation Xrotation
		JOINT LeftLeg
		{
			OFFSET 0.034277 -0.375199 -0.004496
			CHANNELS 3 Zrotation Yrotation Xrotation
			JOINT LeftFoot
			{
				OFFSET -0.013596 -0.397961 -0.043693
				CHANNELS 3 Zrotation Yrotation Xrotation
				JOINT LeftToe
				{
					OFFSET 0.026358 -0.055791 0.119288
					CHANNELS 3 Zrotation Yrotation Xrotation
					End Site
					{
						OFFSET 0.000000 0.000000 0.000000
					}
				}
			}
		}
	}
	JOINT RightUpLeg
	{
		OFFSET -0.067670 -0.090522 -0.004320
		CHANNELS 3 Zrotation Yrotation Xrotation
		JOINT RightLeg
		{
			OFFSET -0.038290 -0.382569 -0.008850
			CHANNELS 3 Zrotation Yrotation Xrotation
			JOINT RightFoot
			{
				OFFSET 0.015774 -0.398415 -0.042312
				CHANNELS 3 Zrotation Yrotation Xrotation
				JOINT RightToe
				{
					OFFSET -0.025372 -0.048144 0.123348
					CHANNELS 3 Zrotation Yrotation Xrotation
					End Site
					{
						OFFSET 0.000000 0.000000 0.000000
					}
				}
			}
		}
	}
	JOINT Spine
	{
		OFFSET -0.002533 0.108963 -0.026696
		CHANNELS 3 Zrotation Yrotation Xrotation
		JOINT Spine1
		{
			OFFSET 0.005487 0.135180 0.001092
			CHANNELS 3 Zrotation Yrotation Xrotation
			JOINT Spine2
			{
				OFFSET 0.001457 0.052922 0.025425
				CHANNELS 3 Zrotation Yrotation Xrotation
				JOINT Neck
				{
					OFFSET -0.002778 0.213870 -0.042857
					CHANNELS 3 Zrotation Yrotation Xrotation
					JOINT Head
					{
						OFFSET 0.005152 0.064970 0.051349
						CHANNELS 3 Zrotation Yrotation Xrotation
						End Site
						{
							OFFSET 0.000000 0.000000 0.000000
						}
					}
				}
				JOINT LeftShoulder
				{
					OFFSET 0.078845 0.121749 -0.034090
					CHANNELS 3 Zrotation Yrotation Xrotation
					JOINT LeftArm
					{
						OFFSET 0.090977 0.030469 -0.008868
						CHANNELS 3 Zrotation Yrotation Xrotation
						JOINT LeftForeArm
						{
							OFFSET 0.259612 -0.012772 -0.027456
							CHANNELS 3 Zrotation Yrotation Xrotation
							JOINT LeftHand
							{
								OFFSET 0.249234 0.008986 -0.001171
								CHANNELS 3 Zrotation Yrotation Xrotation
								End Site
								{
									OFFSET 0.000000 0.000000 0.000000
								}
							}
						}
					}
				}
				JOINT RightShoulder
				{
					OFFSET -0.081759 0.118833 -0.038615
					CHANNELS 3 Zrotation Yrotation Xrotation
					JOINT RightArm
					{
						OFFSET -0.096012 0.032551 -0.009143
						CHANNELS 3 Zrotation Yrotation Xrotation
						JOINT RightForeArm
						{
							OFFSET -0.253742 -0.013329 -0.021401
							CHANNELS 3 Zrotation Yrotation Xrotation
							JOINT RightHand
							{
								OFFSET -0.255298 0.007772 -0.005559
								CHANNELS 3 Zrotation Yrotation Xrotation
								End Site
								{
									OFFSET 0.000000 0.000000 0.000000
								}
							}
						}
					}
				}
			}
		}
	}
}
MOTION
Frames: 18
Frame Time: 0.050000
0.000000 0.932007 0.000000 -0.646181 -7.135241 7.502482 3.841586 -1.000480 -21.279464 -2.875109 0.453125 14.926209 3.728032 7.728628 -0.789288 0.000000 0.000000 0.000000 -1.828101 0.652198 -6.646978 1.168480 0.429257 12.879774 -3.049161 -5.114679 -5.106445 0.000000 0.000000 0.000000 -1.423149 -0.275642 19.496902 2.300023 -0.182865 -21.506930 0.662677 5.887619 29.585800 1.590941 0.465870 -19.233018 0.000000 0.000000 0.000000 -24.925960 -3.131956 0.059290 -43.565434 -3.013716 -6.365282 -12.096324 -39.893508 6.441283 0.000000 0.000000 0.000000 19.059218 3.294067 1.333727 48.413370 -0.010519 -7.321715 8.661890 39.381661 5.062961 0.000000 0.000000 0.000000 
0.000921 0.933778 -0.000020 -0.504451 -7.828311 7.106277 3.449629 -0.994763 -19.777789 -2.243657 0.293443 13.342953 2.763777 5.911592 0.240619 0.000000 0.000000 0.000000 -1.936252 0.524881 -5.192967 0.988152 0.373959 10.893526 -2.967887 -4.200996 -6.106882 0.000000 0.000000 0.000000 -2.203172 -0.082617 20.240006 2.621398 -0.286821 -21.290205 1.109541 6.400274 30.302806 0.909956 0.994539 -19.576224 0.000000 0.000000 0.000000 -24.992931 -3.284976 0.111245 -44.263380 -2.720796 -6.609492 -15.608672 -40.117692 7.797356 0.000000 0.000000 0.000000 19.017202 3.731959 1.639461 48.174385 0.622850 -7.138581 9.537143 39.619985 5.420409 0.000000 0.000000 0.000000 
0.001506 0.933834 0.000243 -0.395213 -7.255586 6.788451 2.753986 -1.079704 -18.524466 -1.115880 0.005112 11.117659 2.277129 5.041738 0.804214 0.000000 0.000000 0.000000 -1.678800 0.421257 -4.058584 1.118168 0.294444 9.939616 -2.981124 -4.412792 -5.911264 0.000000 0.000000 0.000000 -2.071023 -0.129430 21.033725 3.038921 -0.426430 -20.531836 0.291581 6.748817 29.188143 0.726437 1.212309 -19.118382 0.000000 0.000000 0.000000 -25.080352 -3.588999 0.000064 -44.365826 -2.733821 -6.454547 -14.868435 -39.264736 7.255595 0.000000 0.000000 0.000000 20.182049 3.424739 1.645529 48.756766 1.294974 -6.934039 8.113462 37.828332 4.744832 0.000000 0.000000 0.000000 
0.002191 0.933987 0.000290 -0.547733 -7.032063 7.499534 2.149044 -1.208493 -19.121952 -0.148371 -0.200998 10.146723 1.523469 3.930121 2.420627 0.000000 0.000000 0.000000 -1.202579 0.404943 -3.958225 0.318741 0.385848 9.067686 -2.338986 -3.030277 -5.190796 0.000000 0.000000 0.000000 -2.363614 -0.065047 21.803656 3.010500 -0.367527 -21.197202 0.431051 6.430258 29.799948 1.234849 0.888805 -19.956495 0.000000 0.000000 0.000000 -24.046589 -3.290093 -0.051753 -45.633884 -2.330412 -6.806415 -15.287568 -39.265405 7.450273 0.000000 0.000000 0.000000 18.950297 2.835042 1.279422 50.263860 -0.196217 -7.669332 9.562477 38.556291 5.374365 0.000000 0.000000 0.000000 
0.002762 0.933788 0.000003 -0.445117 -7.036834 7.292853 1.823916 -1.229686 -18.531762 -0.159754 -0.195128 9.909894 1.495831 3.780623 2.080215 0.000000 0.000000 0.000000 -1.014796 0.410530 -4.067115 -0.174711 0.461228 8.925192 -2.209263 -2.482778 -5.466469 0.000000 0.000000 0.000000 -2.371866 -0.061683 21.889281 2.613482 -0.268632 -21.217048 -0.078414 6.309224 29.972347 1.822723 0.419464 -19.289251 0.000000 0.000000 0.000000 -23.137335 -3.297041 0.069110 -45.602277 -1.476216 -7.135134 -16.120044 -39.295404 7.752343 0.000000 0.000000 0.000000 20.186454 3.265456 1.482146 49.643788 -0.904017 -7.881331 9.663963 38.201038 5.297947 0.000000 0.000000 0.000000 
0.003173 0.933902 -0.000395 -0.399580 -7.302123 6.967556 1.802674 -1.224130 -18.543860 0.312402 -0.300984 10.540028 1.003219 2.697825 1.841083 0.000000 0.000000 0.000000 -1.243354 0.358749 -3.448234 0.037593 0.385051 8.141577 -2.260282 -2.739477 -5.235595 0.000000 0.000000 0.000000 -3.511352 0.233227 22.918940 3.539747 -0.500392 -21.306269 0.229675 6.305138 30.765778 1.149291 0.928080 -20.271609 0.000000 0.000000 0.000000 -24.108430 -3.004428 -0.117898 -45.137811 -1.017497 -7.298784 -16.729400 -39.843618 8.121808 0.000000 0.000000 0.000000 20.127077 3.660339 1.715122 48.923873 -0.899493 -7.867272 9.643849 38.815740 5.382811 0.000000 0.000000 0.000000 
0.003741 0.933306 -0.000399 -0.363794 -7.097081 7.461688 1.874717 -1.268117 -19.497750 0.362614 -0.328224 11.270316 0.474041 1.556254 1.658121 0.000000 0.000000 0.000000 -1.405329 0.392685 -3.772889 0.238175 0.350840 8.139759 -2.170654 -2.608771 -5.082386 0.000000 0.000000 0.000000 -3.677830 0.279242 23.385445 3.693974 -0.525420 -21.367074 0.232088 6.809786 30.933025 0.835565 1.241619 -20.146690 0.000000 0.000000 0.000000 -24.045804 -3.613608 0.050686 -45.008473 -0.901398 -7.288700 -16.404291 -40.834479 8.148444 0.000000 0.000000 0.000000 20.970441 3.582313 1.866768 48.297171 -1.111794 -7.918236 8.700274 38.580277 5.055851 0.000000 0.000000 0.000000 
0.004691 0.933348 0.000385 -0.411071 -7.053796 8.150682 2.043649 -1.268898 -19.996193 0.165177 -0.282338 11.104532 0.263611 1.073843 1.521689 0.000000 0.000000 0.000000 -1.346706 0.438228 -4.278973 0.480017 0.283211 7.558863 -2.191447 -2.628448 -5.161877 0.000000 0.000000 0.000000 -3.407847 0.226423 23.783740 3.101939 -0.360281 -21.549706 0.073218 6.750655 30.643589 0.876489 1.154583 -19.357092 0.000000 0.000000 0.000000 -23.282663 -3.664817 0.142411 -45.513622 0.018941 -7.671853 -17.750103 -42.513507 9.071398 0.000000 0.000000 0.000000 21.733718 2.867783 1.448087 47.796428 -1.936303 -8.123408 10.542787 39.434306 5.828416 0.000000 0.000000 0.000000 
0.005997 0.933543 0.002097 -0.614548 -8.033945 8.837616 2.707640 -1.143875 -20.457275 -0.595502 -0.092686 10.805742 0.765456 2.050348 1.407539 0.000000 0.000000 0.000000 -1.593155 0.457299 -4.409144 0.611819 0.245925 7.034251 -1.812442 -1.517272 -5.058491 0.000000 0.000000 0.000000 -3.272366 0.264806 24.361483 2.249855 -0.143681 -22.038066 -0.124297 7.061472 30.510828 1.087653 0.904433 -18.225372 0.000000 0.000000 0.000000 -23.007863 -3.812510 0.325616 -44.966612 0.935630 -7.895669 -18.961795 -43.276210 9.739556 0.000000 0.000000 0.000000 22.787998 2.782464 1.326537 46.605919 -2.802277 -8.222510 12.731341 39.407157 6.515469 0.000000 0.000000 0.000000 
0.007822 0.933135 0.004510 -0.754490 -8.481404 10.469216 3.031535 -1.139459 -22.580350 -0.526615 -0.101997 11.348166 0.510540 1.440840 1.210783 0.000000 0.000000 0.000000 -1.870297 0.589359 -5.782784 0.712773 0.235157 7.029263 -1.324425 -0.278551 -4.795862 0.000000 0.000000 0.000000 -3.394555 0.351295 24.767898 1.924352 -0.029693 -22.649900 -0.355822 6.747144 30.210277 0.878283 1.011794 -19.073003 0.000000 0.000000 0.000000 -22.482550 -3.564488 0.360492 -45.185420 1.846616 -8.207986 -20.193818 -44.686502 10.670388 0.000000 0.000000 0.000000 22.647719 2.506036 0.982447 46.618935 -3.617943 -8.386770 15.208605 40.417686 7.550668 0.000000 0.000000 0.000000 
0.010110 0.932318 0.008173 -1.014093 -9.058859 11.280444 3.343408 -1.082274 -24.004562 -0.492228 -0.100415 12.728641 0.792631 1.865120 0.728859 0.000000 0.000000 0.000000 -1.880764 0.692013 -6.890626 1.105235 0.200181 7.372228 -1.094204 0.411735 -4.776414 0.000000 0.000000 0.000000 -3.624604 0.484358 25.578596 1.615762 0.046010 -22.834096 -0.148141 7.004734 29.808231 0.850510 1.098987 -20.138952 0.000000 0.000000 0.000000 -22.144258 -3.180932 0.118185 -45.265454 2.294764 -8.287234 -21.200703 -45.372159 11.260945 0.000000 0.000000 0.000000 22.417640 2.514222 0.966626 46.794869 -3.619358 -8.332935 15.808745 40.798241 7.841628 0.000000 0.000000 0.000000 
0.012866 0.930465 0.014081 -1.379490 -9.282649 11.740905 3.741145 -1.005220 -25.127887 -0.885877 0.010799 14.838335 1.221928 2.440299 -0.385783 0.000000 0.000000 0.000000 -1.851833 0.696462 -6.916782 1.345351 0.173410 7.493843 -1.200178 -0.059517 -4.523218 0.000000 0.000000 0.000000 -3.721693 0.560381 26.327774 0.712213 0.251591 -22.745436 -0.018290 7.344295 28.969653 1.409187 0.868824 -21.396509 0.000000 0.000000 0.000000 -21.411335 -3.331771 0.123416 -45.978512 3.499167 -8.688184 -20.425620 -46.531119 11.167644 0.000000 0.000000 0.000000 22.605577 2.376556 0.926619 47.466451 -4.067715 -8.490051 16.345320 42.319964 8.432314 0.000000 0.000000 0.000000 
0.016457 0.928143 0.022925 -1.247265 -9.023714 12.185096 3.606056 -1.069374 -26.343312 -1.169226 0.089882 16.461895 1.370707 2.580006 -0.989997 0.000000 0.000000 0.000000 -2.027518 0.702857 -6.951680 1.277938 0.171484 7.288326 -1.181190 0.471024 -5.201687 0.000000 0.000000 0.000000 -3.815728 0.583671 26.444419 0.001757 0.430002 -22.857074 0.086229 7.693777 28.969197 1.270771 1.160884 -23.151278 0.000000 0.000000 0.000000 -20.805065 -3.859195 0.303095 -46.541051 4.070468 -8.936732 -19.434290 -47.339185 10.845019 0.000000 0.000000 0.000000 22.206938 1.961556 0.827288 48.272381 -3.908665 -8.556492 16.474717 44.046785 8.994699 0.000000 0.000000 0.000000 
0.020872 0.926525 0.035955 -1.222685 -7.266937 12.955284 3.451703 -1.232933 -26.516618 -1.326866 0.066934 17.010961 1.663293 2.721597 -2.574481 0.000000 0.000000 0.000000 -1.958525 0.727391 -7.228005 1.280523 0.171403 7.708581 -1.405564 -0.039063 -5.668230 0.000000 0.000000 0.000000 -4.085392 0.516762 25.350432 0.171854 0.425493 -22.870645 -0.211705 6.991783 28.439203 1.042370 1.360029 -23.628135 0.000000 0.000000 0.000000 -20.667445 -3.176727 -0.191523 -46.423379 4.861079 -9.100087 -18.649029 -47.078982 10.345961 0.000000 0.000000 0.000000 21.199138 1.758817 0.810703 49.869725 -3.767561 -8.709278 16.164764 45.579505 9.372960 0.000000 0.000000 0.000000 
0.025732 0.928650 0.053666 -1.559039 -5.114190 13.169184 3.647315 -1.298803 -25.374847 -1.609511 0.058319 16.315942 2.286658 4.109259 -2.543835 0.000000 0.000000 0.000000 -0.975415 0.680038 -6.788066 0.949584 0.269812 9.352640 -1.741963 -1.324985 -5.572677 0.000000 0.000000 0.000000 -4.946249 0.587630 24.027329 0.449274 0.383460 -22.296742 0.159080 6.528236 27.863997 1.317759 1.307021 -23.758602 0.000000 0.000000 0.000000 -20.722951 -2.845018 -0.647186 -45.780760 5.053025 -8.913897 -17.706160 -46.382545 9.597478 0.000000 0.000000 0.000000 20.707741 1.457123 0.838613 50.248495 -3.607755 -8.657022 15.277395 45.773119 9.164002 0.000000 0.000000 0.000000 
0.031176 0.930279 0.074676 -2.075253 -3.784953 12.389640 4.045974 -1.216404 -23.140293 -1.297525 -0.074002 16.770908 2.393369 4.048438 -3.363153 0.000000 0.000000 0.000000 -0.598620 0.652967 -6.524293 1.573549 0.287964 13.379258 -2.082460 -3.493782 -3.718410 0.000000 0.000000 0.000000 -5.358522 0.608152 24.136584 0.302232 0.431126 -21.944908 0.188992 6.838233 27.705197 3.776674 0.015148 -23.845416 0.000000 0.000000 0.000000 -20.836780 -3.113085 -0.836205 -44.714513 4.385087 -8.376737 -15.802507 -46.486164 8.607263 0.000000 0.000000 0.000000 20.693688 1.204350 0.985029 50.409798 -3.480608 -8.656873 15.604185 46.114702 9.553818 0.000000 0.000000 0.000000 
0.036122 0.930942 0.097484 -2.553869 -2.324512 10.988669 4.407894 -1.124118 -20.847776 -1.321032 -0.147349 18.744637 2.204748 2.638792 -5.694987 0.000000 0.000000 0.000000 -1.409738 0.842168 -8.620237 3.301681 0.058051 22.809609 -2.193258 -5.150960 -1.054842 0.000000 0.000000 0.000000 -6.097125 0.703212 24.999598 0.517726 0.390909 -21.595389 0.646411 6.544819 27.715242 4.256672 -0.137219 -24.384271 0.000000 0.000000 0.000000 -20.770111 -3.252156 -0.918439 -44.387223 3.308930 -7.921414 -14.175644 -46.249958 7.774767 0.000000 0.000000 0.000000 20.763068 0.637031 0.803826 50.546140 -3.649212 -8.780081 16.219739 46.672366 10.095739 0.000000 0.000000 0.000000 
0.039982 0.930678 0.120703 -2.952528 -1.592484 8.503911 4.446418 -0.924247 -16.243162 -1.136202 -0.250499 19.496764 2.268987 2.228766 -6.837455 0.000000 0.000000 0.000000 -2.260321 1.220294 -13.543427 5.182650 -0.564041 35.686525 -2.583393 -7.499541 2.594812 0.000000 0.000000 0.000000 -5.940622 0.613407 27.745319 0.076204 0.506053 -21.473981 -0.051166 5.670749 27.998978 5.700541 -0.928727 -25.832937 0.000000 0.000000 0.000000 -21.785731 -3.805131 -0.525962 -43.081786 2.313066 -7.438463 -10.900191 -46.987930 6.565009 0.000000 0.000000 0.000000 21.119445 1.840391 1.370600 50.772726 -3.158378 -8.690302 14.665687 47.661261 9.599197 0.000000 0.000000 0.000000 
